<svg width="16" height="17" viewBox="0 0 16 17" fill="none" xmlns="http://www.w3.org/2000/svg">
<path fill-rule="evenodd" clip-rule="evenodd" d="M14.6668 8.49992C14.6668 4.81802 11.6821 1.83325 8.00016 1.83325C4.31826 1.83325 1.3335 4.81802 1.3335 8.49992C1.3335 12.1818 4.31826 15.1666 8.00016 15.1666C11.6821 15.1666 14.6668 12.1818 14.6668 8.49992ZM8.00016 4.66659C8.2763 4.66659 8.50016 4.89044 8.50016 5.16659V9.16658C8.50016 9.44273 8.2763 9.66658 8.00016 9.66658C7.72402 9.66658 7.50016 9.44273 7.50016 9.16658V5.16659C7.50016 4.89044 7.72402 4.66659 8.00016 4.66659ZM8.00016 11.8333C8.36835 11.8333 8.66683 11.5348 8.66683 11.1666C8.66683 10.7984 8.36835 10.4999 8.00016 10.4999C7.63197 10.4999 7.3335 10.7984 7.3335 11.1666C7.3335 11.5348 7.63197 11.8333 8.00016 11.8333Z" fill="#FF7878"/>
</svg>
