<svg width="48" height="48" viewBox="0 0 48 48" fill="none" xmlns="http://www.w3.org/2000/svg">
<rect width="48" height="48" rx="8" fill="#33AADE"/>
<path fill-rule="evenodd" clip-rule="evenodd" d="M13.7153 23.0717C19.5938 20.4051 23.5072 18.6332 25.4723 17.7736C31.0653 15.3351 32.241 14.914 32.9968 14.8965C33.1648 14.8965 33.5343 14.9316 33.7862 15.1421C33.9878 15.3175 34.0382 15.5456 34.0717 15.721C34.1053 15.8965 34.1389 16.2649 34.1053 16.5456C33.803 19.8788 32.4929 27.9662 31.8211 31.6854C31.5356 33.2643 30.9813 33.7906 30.4439 33.8433C29.2682 33.9485 28.378 33.0363 27.2527 32.2644C25.4723 31.0539 24.4814 30.2995 22.7514 29.1066C20.7527 27.7382 22.046 26.9838 23.1881 25.7558C23.4904 25.44 28.6467 20.5279 28.7475 20.0893C28.7643 20.0367 28.7643 19.8262 28.6467 19.7209C28.5291 19.6156 28.3612 19.6507 28.2268 19.6858C28.0421 19.7209 25.2204 21.6857 19.7282 25.5628C18.922 26.1417 18.1998 26.4224 17.5447 26.4049C16.8225 26.3873 15.4453 25.9839 14.4039 25.633C13.1442 25.2119 12.1365 24.9839 12.2205 24.2471C12.2709 23.8611 12.7747 23.4752 13.7153 23.0717Z" fill="white"/>
</svg>
