<svg width="48" height="48" viewBox="0 0 48 48" fill="none" xmlns="http://www.w3.org/2000/svg">
<rect width="48" height="48" rx="8" fill="#26D044"/>
<path fill-rule="evenodd" clip-rule="evenodd" d="M32.9754 15.0136C30.594 12.6408 27.4269 11.3335 24.0528 11.332C17.1003 11.332 11.4417 16.9631 11.439 23.8846C11.4381 26.097 12.0188 28.2565 13.1227 30.1604L11.3333 36.6654L18.02 34.9197C19.8623 35.9198 21.9366 36.447 24.0477 36.4477H24.0529C31.0046 36.4477 36.6637 30.8159 36.6666 23.8943C36.6678 20.5403 35.3569 17.3864 32.9754 15.0136ZM24.0529 34.3277H24.0486C22.1674 34.3269 20.3223 33.8239 18.7127 32.8732L18.3298 32.6473L14.3618 33.6831L15.4209 29.8328L15.1716 29.4379C14.1222 27.7768 13.5679 25.8568 13.5687 23.8852C13.571 18.1324 18.2741 13.4522 24.0571 13.4522C26.8573 13.4532 29.4897 14.5398 31.4691 16.5122C33.4485 18.4844 34.5378 21.1058 34.5367 23.8937C34.5344 29.647 29.8313 34.3277 24.0529 34.3277ZM29.8035 26.5131C29.4884 26.3562 27.939 25.5973 27.65 25.4926C27.3612 25.3881 27.151 25.3357 26.9409 25.6498C26.7308 25.9638 26.1267 26.6702 25.9428 26.8797C25.759 27.0888 25.5751 27.1152 25.2601 26.958C24.9448 26.8012 23.9293 26.4699 22.7255 25.4012C21.7886 24.5695 21.156 23.5424 20.9722 23.2282C20.7883 22.9142 20.9525 22.7445 21.1104 22.5881C21.2521 22.4475 21.4256 22.2217 21.5832 22.0386C21.7409 21.8555 21.7933 21.7245 21.8984 21.5152C22.0035 21.3059 21.9509 21.1227 21.872 20.9658C21.7933 20.8087 21.1629 19.2647 20.9003 18.6367C20.6445 18.0252 20.3847 18.1079 20.1912 18.0982C20.0076 18.0892 19.7973 18.0871 19.5871 18.0871C19.377 18.0871 19.0356 18.1656 18.7467 18.4797C18.4578 18.7937 17.6436 19.5525 17.6436 21.0965C17.6436 22.6404 18.7729 24.1318 18.9305 24.3412C19.088 24.5505 21.153 27.7187 24.3145 29.0775C25.0664 29.4007 25.6535 29.5936 26.1113 29.7383C26.8664 29.9771 27.5534 29.9432 28.0964 29.8626C28.702 29.7725 29.9611 29.1037 30.2237 28.371C30.4863 27.6383 30.4863 27.0102 30.4075 26.8794C30.3288 26.7487 30.1187 26.6702 29.8035 26.5131Z" fill="white"/>
</svg>
