<?xml version="1.0"?>
<svg xmlns="http://www.w3.org/2000/svg" xmlns:xlink="http://www.w3.org/1999/xlink" version="1.1" xml:space="preserve">
  <defs>

    <symbol id="loader" width="100%" height="100%" viewBox="22 22 44 44">
      <circle cx="44" cy="44" r="20.2" fill="none" stroke="currentColor" stroke-width="4"></circle>
    </symbol>

    <symbol id="burger" width="100%" height="100%" viewBox="0 0 32 32">
      <path d="M6.6665 9.3335H25.3332" stroke="currentColor" stroke-width="3" stroke-linecap="round"/>
      <path d="M6.6665 16H25.3332" stroke="currentColor" stroke-width="3" stroke-linecap="round"/>
      <path d="M6.6665 22.6665H25.3332" stroke="currentColor" stroke-width="3" stroke-linecap="round"/>
    </symbol>

    <symbol id="close" width="100%" height="100%" viewBox="0 0 16 16">
      <path d="M1 15L15 1M1 1L15 15" stroke="currentColor" stroke-width="2" stroke-linecap="round" stroke-linejoin="round"/>
    </symbol>

    <symbol id="success" width="100%" height="100%" viewBox="0 0 68 68">
      <path fill-rule="evenodd" clip-rule="evenodd" d="M34 68C52.7777 68 68 52.7777 68 34C68 15.2223 52.7777 0 34 0C15.2223 0 0 15.2223 0 34C0 52.7777 15.2223 68 34 68ZM49.7552 28.5052C51.4149 26.8455 51.4149 24.1545 49.7552 22.4948C48.0955 20.8351 45.4045 20.8351 43.7448 22.4948L29.75 36.4896L24.2552 30.9948C22.5955 29.3351 19.9045 29.3351 18.2448 30.9948C16.5851 32.6545 16.5851 35.3455 18.2448 37.0052L26.7448 45.5052C28.4045 47.1649 31.0955 47.1649 32.7552 45.5052L49.7552 28.5052Z" fill="currentColor"/>
    </symbol>

    <symbol id="car" width="100%" height="100%" viewBox="0 0 24 24">
      <path d="M7 19C8.10457 19 9 18.1046 9 17C9 15.8954 8.10457 15 7 15C5.89543 15 5 15.8954 5 17C5 18.1046 5.89543 19 7 19Z" fill="var(--color-none)" stroke="currentColor" stroke-width="2" stroke-linecap="round" stroke-linejoin="round"/>
      <path d="M17 19C18.1046 19 19 18.1046 19 17C19 15.8954 18.1046 15 17 15C15.8954 15 15 15.8954 15 17C15 18.1046 15.8954 19 17 19Z" fill="var(--color-none)" stroke="currentColor" stroke-width="2" stroke-linecap="round" stroke-linejoin="round"/>
      <path d="M12 11V6M5 17H3V11L5 6H14L18 11H19C19.5304 11 20.0391 11.2107 20.4142 11.5858C20.7893 11.9609 21 12.4696 21 13V17H19H5ZM15 17H9H15ZM3 11H18H3Z" fill="var(--color-none)" stroke="currentColor" stroke-width="2" stroke-linecap="round" stroke-linejoin="round"/>
    </symbol>

    <symbol id="rules" width="100%" height="100%" viewBox="0 0 24 24">
      <path d="M5 4H19C19.2652 4 19.5196 4.10536 19.7071 4.29289C19.8946 4.48043 20 4.73478 20 5V10C20 10.2652 19.8946 10.5196 19.7071 10.7071C19.5196 10.8946 19.2652 11 19 11H12C11.7348 11 11.4804 11.1054 11.2929 11.2929C11.1054 11.4804 11 11.7348 11 12V19C11 19.2652 10.8946 19.5196 10.7071 19.7071C10.5196 19.8946 10.2652 20 10 20H5C4.73478 20 4.48043 19.8946 4.29289 19.7071C4.10536 19.5196 4 19.2652 4 19V5C4 4.73478 4.10536 4.48043 4.29289 4.29289C4.48043 4.10536 4.73478 4 5 4" fill="var(--color-none)" stroke="currentColor" stroke-width="2" stroke-linecap="round" stroke-linejoin="round"/>
      <path d="M4 8H6" fill="var(--color-none)" stroke="currentColor" stroke-width="2" stroke-linecap="round" stroke-linejoin="round"/>
      <path d="M4 12H7" fill="var(--color-none)" stroke="currentColor" stroke-width="2" stroke-linecap="round" stroke-linejoin="round"/>
      <path d="M4 16H6" fill="var(--color-none)" stroke="currentColor" stroke-width="2" stroke-linecap="round" stroke-linejoin="round"/>
      <path d="M8 4V6" fill="var(--color-none)" stroke="currentColor" stroke-width="2" stroke-linecap="round" stroke-linejoin="round"/>
      <path d="M12 4V7" fill="var(--color-none)" stroke="currentColor" stroke-width="2" stroke-linecap="round" stroke-linejoin="round"/>
      <path d="M16 4V6" fill="var(--color-none)" stroke="currentColor" stroke-width="2" stroke-linecap="round" stroke-linejoin="round"/>
    </symbol>

    <symbol id="gift" width="100%" height="100%" viewBox="0 0 24 24">
      <path d="M20 8H4C3.44772 8 3 8.44772 3 9V11C3 11.5523 3.44772 12 4 12H20C20.5523 12 21 11.5523 21 11V9C21 8.44772 20.5523 8 20 8Z" fill="var(--color-none)" stroke="currentColor" stroke-width="2" stroke-linecap="round" stroke-linejoin="round"/>
      <path d="M12 8V21" fill="var(--color-none)" stroke="currentColor" stroke-width="2" stroke-linecap="round" stroke-linejoin="round"/>
      <path d="M19 12V19C19 19.5304 18.7893 20.0391 18.4142 20.4142C18.0391 20.7893 17.5304 21 17 21H7C6.46957 21 5.96086 20.7893 5.58579 20.4142C5.21071 20.0391 5 19.5304 5 19V12" stroke="currentColor" fill="var(--color-none)" stroke-width="2" stroke-linecap="round" stroke-linejoin="round"/>
      <path d="M7.5 7.99995C6.83696 7.99995 6.20107 7.73656 5.73223 7.26772C5.26339 6.79887 5 6.16299 5 5.49995C5 4.83691 5.26339 4.20102 5.73223 3.73218C6.20107 3.26334 6.83696 2.99995 7.5 2.99995C8.46469 2.98314 9.41003 3.45121 10.2127 4.34311C11.0154 5.23501 11.6383 6.50935 12 7.99995C12.3617 6.50935 12.9846 5.23501 13.7873 4.34311C14.59 3.45121 15.5353 2.98314 16.5 2.99995C17.163 2.99995 17.7989 3.26334 18.2678 3.73218C18.7366 4.20102 19 4.83691 19 5.49995C19 6.16299 18.7366 6.79887 18.2678 7.26772C17.7989 7.73656 17.163 7.99995 16.5 7.99995" fill="var(--color-none)" stroke="currentColor" stroke-width="2" stroke-linecap="round" stroke-linejoin="round"/>
    </symbol>

    <symbol id="arrow-to" width="100%" height="100%" viewBox="0 0 27 27">
      <path d="M0.721169 10.5964C0.725198 11.033 0.86906 11.4567 1.13162 11.8054C1.39418 12.1541 1.7616 12.4094 2.1799 12.5337L12.0682 15.5818L15.1148 25.4753C15.2377 25.8935 15.4929 26.2606 15.842 26.5214C16.1911 26.7823 16.6154 26.9228 17.0511 26.9218L17.0899 26.9218C17.5203 26.9249 17.9407 26.7916 18.2909 26.541C18.641 26.2905 18.9029 25.9355 19.0391 25.5269L26.6039 3.67358C26.7329 3.30614 26.7556 2.90969 26.6692 2.52992C26.5829 2.15016 26.391 1.80254 26.1157 1.52714C25.8405 1.25175 25.4931 1.05978 25.1135 0.973373C24.7339 0.886968 24.3377 0.90964 23.9704 1.03878L2.11535 8.60737C1.70171 8.74741 1.34349 9.01579 1.09276 9.3735C0.842034 9.7312 0.711861 10.1596 0.721169 10.5964Z" fill="currentColor"/>
    </symbol>

    <symbol id="crown" width="100%" height="100%" viewBox="0 0 32 32">
      <path d="M16 8L21.3333 16L28 10.6667L25.3333 24H6.66667L4 10.6667L10.6667 16L16 8Z" fill="var(--color-none)" stroke="currentColor" stroke-width="2" stroke-linecap="round" stroke-linejoin="round"/>
    </symbol>

  </defs>
</svg>