<?xml version="1.0" standalone="no"?>
<!DOCTYPE svg PUBLIC "-//W3C//DTD SVG 20010904//EN"
 "http://www.w3.org/TR/2001/REC-SVG-20010904/DTD/svg10.dtd">
<svg version="1.0" xmlns="http://www.w3.org/2000/svg"
 width="260.000000pt" height="260.000000pt" viewBox="0 0 260.000000 260.000000"
 preserveAspectRatio="xMidYMid meet">
<metadata>
Created by potrace 1.14, written by Peter Selinger 2001-2017
</metadata>
<g transform="translate(0.000000,260.000000) scale(0.100000,-0.100000)"
fill="#000000" stroke="none">
<path d="M324 2221 c-2 -2 -4 -419 -4 -925 l0 -921 200 0 200 -1 0 31 c1 41 1
1707 0 1770 l0 50 -196 0 c-107 0 -197 -2 -200 -4z"/>
<path d="M775 1303 l1 -928 197 -3 197 -2 0 457 1 458 24 -45 c13 -25 151
-229 307 -455 l283 -410 248 -3 c136 -1 247 1 247 5 0 5 -58 85 -128 179 -70
94 -135 182 -144 195 -10 13 -58 78 -107 144 -49 66 -143 194 -209 284 l-121
163 56 77 c119 161 318 426 323 431 3 3 17 21 30 40 14 19 30 42 37 50 21 26
199 264 207 278 6 9 -42 12 -227 12 l-234 0 -29 -42 c-16 -24 -31 -45 -34 -48
-3 -3 -30 -43 -62 -90 -31 -47 -109 -161 -173 -255 -64 -93 -138 -201 -163
-240 -25 -38 -49 -72 -52 -75 -4 -3 -23 -34 -43 -70 l-37 -65 0 443 0 442
-197 0 -198 0 0 -927z"/>
</g>
</svg>
